HIERARCHY
ROOT hip
{
	OFFSET 0.000000 0.000000 0.000000 
	CHANNELS 6 Xposition Yposition Zposition Xrotation Zrotation Yrotation
	JOINT abdomen
	{
		OFFSET 0.000000 3.402643 0.000000 
		CHANNELS 3 Xrotation Zrotation Yrotation
		JOINT chest
		{
			OFFSET 0.000000 8.438565 -0.680529 
			CHANNELS 3 Xrotation Zrotation Yrotation
			JOINT neck
			{
				OFFSET 0.000000 10.207942 -0.272212 
				CHANNELS 3 Xrotation Zrotation Yrotation
				JOINT head
				{
					OFFSET 0.000000 3.130431 0.000000 
					CHANNELS 3 Xrotation Zrotation Yrotation
					End Site
					{
						OFFSET 0.000000 3.130435 0.000000 
					}
				}
			}
			JOINT lCollar
			{
				OFFSET 3.470700 6.669187 -0.816635 
				CHANNELS 3 Yrotation Zrotation Xrotation
				JOINT lShldr
				{
					OFFSET 3.198488 0.000000 0.000000 
					CHANNELS 3 Zrotation Yrotation Xrotation
					JOINT lForeArm
					{
						OFFSET 10.139888 0.000000 0.000000 
						CHANNELS 3 Yrotation Zrotation Xrotation
						JOINT lHand
						{
							OFFSET 8.370511 0.000000 0.000000 
							CHANNELS 3 Zrotation Yrotation Xrotation
							End Site
							{
								OFFSET 4.083176 0.000000 0.000000 
							}
						}
					}
				}
			}
			JOINT rCollar
			{
				OFFSET -3.470700 6.669187 -0.816635 
				CHANNELS 3 Yrotation Zrotation Xrotation
				JOINT rShldr
				{
					OFFSET -3.198488 0.000000 0.000000 
					CHANNELS 3 Zrotation Yrotation Xrotation
					JOINT rForeArm
					{
						OFFSET -10.139888 0.000000 0.000000 
						CHANNELS 3 Yrotation Zrotation Xrotation
						JOINT rHand
						{
							OFFSET -8.370511 0.000000 0.000000 
							CHANNELS 3 Zrotation Yrotation Xrotation
							End Site
							{
								OFFSET -4.083176 0.000000 0.000000 
							}
						}
					}
				}
			}
		}
	}
	JOINT lThigh
	{
		OFFSET 5.308129 -1.633274 1.361059 
		CHANNELS 3 Xrotation Zrotation Yrotation
		JOINT lShin
		{
			OFFSET -2.041588 -20.007561 0.000000 
			CHANNELS 3 Xrotation Zrotation Yrotation
			JOINT lFoot
			{
				OFFSET 0.000000 -19.190928 -1.224953 
				CHANNELS 3 Xrotation Yrotation Zrotation
				End Site
				{
					OFFSET 0.000000 -2.449906 4.627600 
				}
			}
		}
	}
	JOINT rThigh
	{
		OFFSET -5.308129 -1.633274 1.361059 
		CHANNELS 3 Xrotation Zrotation Yrotation
		JOINT rShin
		{
			OFFSET 2.041588 -20.007561 0.000000 
			CHANNELS 3 Xrotation Zrotation Yrotation
			JOINT rFoot
			{
				OFFSET 0.000000 -19.190928 -1.224953 
				CHANNELS 3 Xrotation Yrotation Zrotation
				End Site
				{
					OFFSET 0.000000 -2.449906 4.627600 
				}
			}
		}
	}
}
MOTION
Frames: 11
Frame Time: 0.033333
-11.911725 48.559517 19.031242 30.664063 16.015627 -22.145744 23.301027 -33.990105 12.627136 -21.357424 9.375001 -1.210938 51.063168 8.107644 2.471410 -81.279297 0.419922 -23.769533 2.000000 -2.000000 0.000000 -90.380859 32.080082 -20.517580 -53.391308 -1.673069 -2.070038 22.265200 65.468124 17.968103 -2.000000 2.000000 0.000000 44.570313 29.726564 6.601563 65.653023 0.817361 -3.000432 -49.615005 -58.445915 70.244385 -65.064331 -2.938565 -10.357359 45.198780 -3.749639 -3.832668 -4.526653 -1.821424 -6.296290 9.636912 -5.946981 -40.908245 -10.222460 4.906075 -0.692814 41.874748 -13.638430 8.810041 
-11.915312 48.504375 19.040962 30.634768 15.839844 -22.057878 23.179356 -33.452206 12.300317 -21.181641 9.189452 -1.210937 51.063168 8.107644 2.471410 -80.761719 0.371094 -23.046852 2.000000 -2.000000 0.000000 -91.103516 31.572266 -21.606213 -53.569180 -1.843917 -2.148080 22.812706 65.129517 18.337729 -2.000000 2.000000 0.000000 45.878906 29.658205 6.762646 65.476959 0.826546 -2.990123 -49.712337 -57.930862 71.031792 -65.064331 -2.938567 -10.357360 45.376820 -3.739984 -3.814196 -4.861265 -2.151785 -6.068170 9.106609 -6.473683 -40.760376 -8.265406 4.725513 -0.517289 41.605064 -13.381877 9.034535 
-11.914967 48.449223 19.047905 30.429688 15.742189 -22.018833 23.058416 -32.913937 11.968186 -21.191406 9.013672 -1.064453 51.063168 8.107644 2.471410 -80.576172 0.498047 -22.597656 2.000000 -2.000000 0.000000 -91.435547 31.289063 -21.791803 -53.568115 -1.694840 -2.107882 21.556110 64.727203 16.649647 -2.000000 2.000000 0.000000 46.484375 29.755859 7.084924 65.132011 0.986075 -2.873336 -49.076336 -57.989002 70.786263 -64.682899 -2.948340 -10.032937 45.201538 -3.622759 -3.928039 -5.245654 -2.358340 -5.365736 8.680222 -7.245748 -40.301941 -5.932437 4.744008 -0.332597 41.202415 -13.048199 9.958141 
-11.925495 48.394081 19.071627 30.224611 15.615234 -22.194637 22.920612 -32.622856 11.740107 -21.025393 8.828124 -0.878906 51.063168 8.107644 2.471410 -80.195313 0.634766 -22.167969 2.000000 -2.000000 0.000000 -91.992188 31.035156 -22.543791 -53.732548 -1.525127 -2.049332 22.174412 64.556190 16.943144 -2.000000 2.000000 0.000000 46.953125 29.599607 7.675781 64.944412 0.845067 -2.803266 -48.464909 -58.342678 70.489555 -64.533699 -2.937848 -10.373069 45.376129 -3.739957 -3.833537 -5.762782 -1.855048 -5.602138 8.159835 -7.957740 -40.182247 -3.542835 5.182881 -0.114736 41.001671 -13.361718 10.087982 
-11.940655 48.346809 19.075909 29.843750 15.496962 -22.206438 22.800566 -32.084034 11.413395 -21.035158 8.652344 -0.908203 51.063168 8.107644 2.471410 -80.009766 0.917969 -21.816248 2.000000 -2.000000 0.000000 -92.138672 30.771484 -22.866095 -53.732548 -1.525127 -2.049332 21.821644 64.205368 16.416201 -2.000000 2.000000 0.000000 47.421875 29.404293 8.408204 64.597755 0.855230 -2.978685 -48.059303 -58.833595 70.260612 -64.180687 -2.937394 -10.392866 45.376129 -3.739952 -3.833535 -6.233127 -1.842813 -5.581429 7.846624 -8.660513 -40.229385 -3.542833 5.182884 -0.114736 40.603901 -12.612909 10.159278 
-11.948292 48.315292 19.077990 29.443361 15.410156 -22.380217 22.631933 -31.626842 11.254007 -20.849607 8.466797 -0.740750 51.063168 8.107644 2.471410 -79.628906 1.201172 -21.621098 2.000000 -2.000000 0.000000 -92.568359 30.478518 -23.120045 -53.731194 -1.365730 -1.999959 20.634935 64.216927 15.044106 -2.000000 2.000000 0.000000 47.998047 29.296873 9.077044 64.417061 0.854816 -2.802702 -46.963394 -59.390900 69.738503 -63.666862 -2.919001 -10.617082 45.198437 -3.749622 -3.842337 -6.733593 -1.602950 -5.822689 7.592861 -9.158015 -40.096691 -1.144100 4.737256 -0.107998 40.793858 -12.042522 11.045068 
-11.938108 48.299541 19.054848 28.867188 15.332033 -22.792969 22.702131 -31.306084 10.974404 -20.683594 8.300782 -0.742187 51.063168 8.107644 2.471410 -79.433594 1.337891 -21.161880 2.000000 -2.000000 0.000000 -92.705078 30.214844 -23.251953 -53.732548 -1.525127 -2.049332 20.917690 63.949543 15.155826 -2.000000 2.000000 0.000000 48.203125 29.277344 9.609376 64.081612 1.013769 -2.675997 -46.682236 -59.838890 69.224686 -63.300800 -2.907592 -10.834036 45.178829 -3.749807 -3.840816 -7.041274 -1.664750 -6.053496 7.478084 -9.569762 -39.945038 -0.431453 4.785686 -0.052486 41.202656 -11.651582 10.824121 
-11.943084 48.291664 19.012148 28.505861 15.214844 -22.956421 22.353086 -31.489809 10.987306 -20.507813 8.291017 -0.701717 51.063168 8.107644 2.471410 -79.423828 1.650391 -21.162109 2.000000 -2.000000 0.000000 -92.861328 30.351561 -23.657177 -53.731194 -1.365730 -1.999959 19.914936 63.936951 14.093677 -2.000000 2.000000 0.000000 48.251953 29.130859 10.004753 63.889427 0.873749 -2.791829 -46.085064 -60.409889 68.814178 -62.601387 -2.908596 -10.719126 44.847370 -3.652017 -3.901522 -7.222267 -1.972842 -5.621770 7.488938 -9.940972 -39.831802 0.622797 4.747345 0.207749 41.107594 -11.136653 11.232306 
-11.962872 48.291664 18.951628 28.115236 15.126953 -23.298231 22.148476 -31.760065 11.119471 -20.332029 8.291017 -0.867732 51.063168 8.107644 2.471410 -79.375000 2.089844 -21.220703 2.000000 -2.000000 0.000000 -92.285156 29.873045 -23.857422 -53.907246 -1.356550 -2.010274 19.740133 63.952713 13.783685 -2.000000 2.000000 0.000000 48.525394 28.876953 9.926593 63.537582 0.882934 -2.781520 -44.863667 -60.766888 67.741699 -62.319809 -2.704080 -11.371933 44.844799 -3.778876 -3.796011 -7.126204 -1.340793 -6.230767 7.232630 -10.389407 -39.835999 1.695800 4.736526 0.293045 40.777828 -10.968788 11.230858 
-11.972013 48.307415 18.876762 27.558594 15.048829 -23.737698 22.125841 -31.989727 11.234855 -20.332029 8.291017 -0.867732 51.063168 8.107644 2.471410 -79.521484 2.421875 -21.601149 2.000000 -2.000000 0.000000 -92.226563 30.117189 -24.213850 -54.271538 -1.675910 -2.118765 20.790426 63.927086 14.795859 -2.000000 2.000000 0.000000 48.623047 28.623047 9.682413 63.535275 0.712108 -2.703396 -44.473087 -61.249672 67.356049 -61.761589 -2.723601 -11.053226 44.502586 -3.664914 -3.908104 -7.104615 -1.580698 -5.985657 7.231862 -10.750123 -39.720184 2.769855 4.727541 0.378141 40.765343 -10.953782 11.193706 
-11.975832 48.315292 18.792284 26.992189 14.960938 -23.952557 22.107172 -32.460197 11.430637 -20.332029 8.291017 -0.867732 51.063168 8.107644 2.471410 -79.511719 2.568359 -22.031246 2.000000 -2.000000 0.000000 -91.621094 30.166016 -24.038061 -54.271324 -1.646095 -2.110726 20.550398 63.980335 14.535244 -2.000000 2.000000 0.000000 48.369141 28.154295 9.135467 63.361778 0.902432 -2.780392 -45.095150 -61.453918 67.725609 -61.462952 -2.685066 -11.610067 44.519066 -3.808519 -3.790194 -6.880862 -1.089097 -6.996119 7.106297 -11.346677 -39.581841 3.644874 4.713485 0.311018 41.018089 -10.391517 11.181714 
